<svg version="1.1" xmlns="http://www.w3.org/2000/svg" viewBox="0 0 64.8435275470037 67.20716825497334">
  <rect x="0" y="0" width="64.8435275470037" height="67.20716825497334" fill="transparent"/>
  <g>
    <g transform="translate(12.209880605921171 11.823194504128764) rotate(0 21.270171249555403 -0.13095646013505302)">
      <path d="M0.0704608652740717 0.41642764471471305 C6.6240776711453995 0.5441492762416601, 33.15322300332288 1.2820204820483925, 40.049150523915884 1.0902524437755348 M-0.0933044419717044 1.561281583858654 C6.715186307526504 1.439136028541252, 35.616695584055655 -1.74303496603854, 42.63364694108255 -1.8231945041287692" style="stroke:#000;stroke-width:1;fill:none"/>
    </g>
  </g>
  <g>
    <g transform="translate(12.346599355921171 56.932569504128764) rotate(0 21.125159513754767 -0.19968271987050912)">
      <path d="M0.2917544569820165 0.07939297892153263 C7.0670256541421015 0.086236510053277, 33.8596546775351 0.24536637999117364, 40.64879802130163 0.2745987508445977 M-0.2464931521285325 0.18905360360629864 C7.132889272722725 0.21896901537664243, 35.47491853004011 -0.653209350509569, 42.49681217963807 -0.6739641905855387" style="stroke:#000;stroke-width:1;fill:none"/>
    </g>
  </g>
  <g>
    <g transform="translate(52.79972435592117 11.448194504128764) rotate(0 -0.23857120981907087 22.179434767737973)">
      <path d="M0.5063359703868628 -0.256373455747962 C0.2871509399265052 7.264062858993808, -1.1021396432071922 37.22249107894798, -1.0030824098736046 44.61524299122393 M-0.6133668330777438 1.5696005042362957 C-0.6447904092539103 8.583196571168179, 0.31248478795401735 35.658407661713035, 0.5259399902354924 42.63551865746267" style="stroke:#000;stroke-width:1;fill:none"/>
    </g>
  </g>
  <g>
    <g transform="translate(11.245036855921171 11.686475754128764) rotate(0 0.030971784026348814 22.30233770869671)">
      <path d="M-1.1047658946365118 -0.1544999990612268 C-1.1793821718543767 7.444224084044496, -1.3973786141723394 37.34212362033625, -1.0694546844810247 44.759175416454674 M1.019825930194929 1.0174764394294469 C1.4311181615758686 8.235819095425928, 1.359151759343222 36.67978358999205, 1.0652076988387855 43.707080647004766" style="stroke:#000;stroke-width:1;fill:none"/>
    </g>
  </g>
</svg>
