<svg version="1.1" xmlns="http://www.w3.org/2000/svg" viewBox="0 0 62.743305331766635 66.01534720659254">
  <rect x="0" y="0" width="62.743305331766635" height="66.01534720659254" fill="transparent"/>
  <g>
    <g transform="translate(10.24649315212855 55.74074845574796) rotate(0 21.125159513754767 -0.19968271987050912)">
      <path d="M0.2917544569820165 0.07939297892153263 C7.0670256541421015 0.086236510053277, 33.8596546775351 0.24536637999117364, 40.64879802130163 0.2745987508445977 M-0.2464931521285325 0.18905360360629864 C7.132889272722725 0.21896901537664243, 35.47491853004011 -0.653209350509569, 42.49681217963807 -0.6739641905855387" style="stroke:#000;stroke-width:1;fill:none"/>
    </g>
  </g>
  <g>
    <g transform="translate(50.69961815212855 10.256373455747962) rotate(0 -0.23857120981907087 22.179434767737973)">
      <path d="M0.5063359703868628 -0.256373455747962 C0.2871509399265052 7.264062858993808, -1.1021396432071922 37.22249107894798, -1.0030824098736046 44.61524299122393 M-0.6133668330777438 1.5696005042362957 C-0.6447904092539103 8.583196571168179, 0.31248478795401735 35.658407661713035, 0.5259399902354924 42.63551865746267" style="stroke:#000;stroke-width:1;fill:none"/>
    </g>
  </g>
  <g transform="translate(26.09024315212855 29.502467205747962) rotate(0 3.89453125 3.62890625)">
    <path d="M4.0716247110125785 -0.3470789380298789 C4.877949449433982 -0.44033204885256466, 5.561740989521789 0.6124099939215435, 6.070803942813102 1.092573946224309 C6.579866896104415 1.5727378985270744, 6.932691917189164 1.6015431791889725, 7.126002430760456 2.533904775786714 C7.319312944331749 3.466266372384456, 7.76779767712879 5.826200518370872, 7.230667024240854 6.6867435258107575 C6.693536371352918 7.547286533250643, 4.702269513263937 7.517509270404217, 3.903218513432842 7.697162820426032 C3.1041675136017464 7.876816370447846, 2.9498937725010874 8.290373938653714, 2.436361025254282 7.764664825941644 C1.9228282780074768 7.238955713229573, 1.2985599919251243 5.306962814192277, 0.8220220299520107 4.542908144153609 C0.345484067978897 3.7788534741149413, -0.4095064803488882 3.766560284250216, -0.42286674658440004 3.180336805709638 C-0.4362270128199119 2.5941133271690604, -0.10138511853724719 1.6831806315797304, 0.7418604325389397 1.0255672729101413 C1.5851059836151267 0.367953914240552, 3.762268831250775 -0.6428496747264175, 4.636606559872722 -0.7653433463078971 C5.510944288494669 -0.8878370178893767, 6.113372346155845 0.184672044007353, 5.987886804270622 0.2906052434212638 M4.999660370846772 -0.6907716608052454 C5.688336227417172 -0.29367634691971706, 5.24516803525349 1.5220975876471026, 5.935742004970857 2.085447613726276 C6.626315974688223 2.648797639805449, 9.146769191102369 2.2948906068806685, 9.143104189150973 2.6893284956697943 C9.139439187199578 3.08376638445892, 6.693734229654922 3.7864498752265447, 5.91375199326248 4.45207494646103 C5.133769756870038 5.117700017695515, 5.212608910903381 6.457834065551526, 4.463210770796321 6.683078923076705 C3.7138126306892616 6.908323780601884, 2.2489617712054444 6.289832604026049, 1.4173631526201218 5.803544091612105 C0.5857645340347992 5.317255579198161, -0.2002805901396531 4.297550324997526, -0.5263809407156144 3.765347848593037 C-0.8524812912915756 3.2331453721885475, -1.13850548365305 3.205647368728341, -0.5392389508356459 2.610329233185169 C0.06002758198175828 2.015011097641997, 2.072048974426773 0.7534154043401446, 3.069218256188811 0.19343903533400475 C4.066387537950848 -0.36653733367213515, 5.081107097990094 -0.5632427346956519, 5.443776739736579 -0.7495289808516703 C5.806446381483065 -0.9358152270076887, 5.589801758271906 -1.2125010277722634, 5.245236106667722 -0.9242784416021057" style="stroke:none;stroke-width:0;fill:#868e96"/>
    <path d="M3.0194737890126033 -0.2292899175184595 C3.806079133336832 -0.5078744451529613, 3.792904133903992 0.026155755958430227, 4.51091260726156 0.4442449792660432 C5.228921080619129 0.8623342025736562, 6.917532884871249 1.5930556948112229, 7.327524629158013 2.2792454223272185 C7.737516373444778 2.965435149843214, 7.038774723405396 3.7802056108127275, 6.970863072982148 4.561383344362017 C6.9029514225589 5.3425610779113075, 7.213190997840324 6.364517407211979, 6.920054726618522 6.9663118236229575 C6.62691845539672 7.568106240033936, 6.094838628144814 8.090731785378583, 5.212045445651335 8.172149842827887 C4.329252263157857 8.25356790027719, 2.5656369980910934 7.9782548410762875, 1.6232956316576521 7.454820168318774 C0.680954265224211 6.93138549556126, -0.3189877739269235 5.768075206803985, -0.4420027529493118 5.031541806282807 C-0.5650177319717001 4.295008405761628, 0.4487353149888274 3.6918050267254015, 0.8852057575233223 3.035619765191705 C1.3216762000578173 2.379434503658009, 1.8286021011616123 1.679316491267501, 2.1768199022576575 1.0944302370806298 C2.525037703353703 0.5095439828937588, 2.8209161910942844 -0.33905258495799184, 2.9745125640995944 -0.4736977599295207 M3.6062749068156865 -0.17456521995988705 C4.500072185792396 -0.3704245798234459, 4.584166703312851 0.8423979746248442, 4.9902899907862786 1.2236127076090835 C5.396413278259706 1.6048274405933227, 5.765763478107298 1.5966682192122037, 6.043014631656248 2.112723177945549 C6.320265785205197 2.628778136678894, 6.396363565846121 3.6291120420335465, 6.653796912079976 4.319942460009155 C6.9112302583138305 5.010772877984764, 8.158967254863907 5.799609713258038, 7.587614709059373 6.257705685799202 C7.01626216325484 6.715801658340366, 4.088067816131015 7.077405511475785, 3.2256816372527752 7.068518295256139 C2.3632954583745356 7.0596310790364925, 3.0255884752741378 6.678986148768591, 2.4132976357899367 6.204382388481323 C1.8010067963057357 5.7297786281940555, -0.24455342556261583 4.971694629351246, -0.4480633996524306 4.220895733532531 C-0.6515733737422453 3.470096837713816, 0.5535364143888225 2.5054019097244313, 1.1922377912510482 1.6995890135690317 C1.8309391681132738 0.8937761174136322, 3.369087997476872 -0.30184440351358455, 3.384144861520924 -0.6139816433998662 C3.399201725564976 -0.9261188832861478, 1.3707891885877959 -0.28439803308441114, 1.2825789755153578 -0.173234425748658" style="stroke:#000;stroke-width:1;fill:none"/>
  </g>
</svg>
