<svg version="1.1" xmlns="http://www.w3.org/2000/svg" viewBox="0 0 45.074485802650486 51.61969424486165">
  <rect x="0" y="0" width="45.074485802650486" height="51.61969424486165" fill="transparent"/>
  <g>
    <g transform="translate(34.5681498322636 10.256373455747962) rotate(0 -11.224935719743371 8.155997267737973)">
      <path d="M0.5063359703868628 -0.256373455747962 C-3.371703226740162 2.589583692327141, -19.396410476540527 13.850095245614646, -22.956207409873606 16.56836799122393 M-0.6133668330777438 1.5696005042362957 C-4.303644575920577 3.908717404501513, -17.981786045379316 12.286011828379706, -21.427185009764507 14.588643657462672" style="stroke:#000;stroke-width:1;fill:none"/>
    </g>
  </g>
  <g>
    <g transform="translate(11.1501810822636 29.783717205747962) rotate(0 10.757612206726321 5.322477546706807)">
      <path d="M-1.150181082263589 -1.1910219457000493 C2.2330470647662874 0.97228520847857, 17.449941631779073 9.919616982713341, 21.050752862915395 11.83597703911364 M-0.5460826668608934 -0.6364120421838015 C2.9739399659167973 0.8835166447330267, 19.30658745850436 8.25031883914955, 22.665405495716257 10.033214969532564" style="stroke:#000;stroke-width:1;fill:none"/>
    </g>
  </g>
  <g transform="translate(22.2165873322636 22.701685955747962) rotate(0 3.89453125 3.62890625)">
    <path d="M3.9321416827572695 0.6724998344377324 C4.898511542493771 0.5198457095373059, 6.281687951999761 -0.019812537933182828, 7.021143621148706 0.3035028185753976 C7.760599290297652 0.6268181750839781, 8.421098649599696 1.8424895660418361, 8.368875697650944 2.612391973489215 C8.316652745702193 3.382294380936594, 7.276755879309222 4.14734472821548, 6.707805909456203 4.922917263259673 C6.138855939603184 5.698489798303865, 5.846001078365318 6.988264863404742, 4.955175878532827 7.265827183754368 C4.064350678700335 7.543389504103994, 2.1311835160681216 7.008629198826913, 1.3628547104612565 6.5882911853574235 C0.5945259048543914 6.167953171887934, 0.7037265225447511 5.4883407106675675, 0.34520304489163545 4.743799102937432 C-0.013320432761480261 3.9992574952072966, -0.9100443966397926 2.755141394452929, -0.7882861554574379 2.1210415389766104 C-0.6665279142750831 1.4869416835002918, 0.10655778991692211 1.1949848793065514, 1.0757524919857642 0.9391999700795197 C2.0449471940546062 0.683415060852488, 4.108704825754558 0.502005426884721, 5.026882056955614 0.5863320836144208 C5.94505928815667 0.6706587403441205, 6.52004346376505 1.5700885526296167, 6.5848158791921 1.445159910457718 M3.5453514101893013 -0.8993193396712731 C4.453654225776541 -1.0995015564854551, 5.4055881422826335 -0.4012871695488819, 6.285207664148036 0.23257327246756088 C7.164827186013438 0.8664337144840036, 8.680982446631171 2.060672679082462, 8.823068541381714 2.9038433124273832 C8.965154636132256 3.7470139457723044, 7.768666427502068 4.471728015726924, 7.137724232651288 5.291597072537087 C6.506782037800508 6.111466129347249, 5.439713732324517 7.59050166979874, 5.037415372277032 7.823057653288357 C4.635117012229546 8.055613636777975, 5.567716484215505 7.117857366602918, 4.723934072366378 6.686932973474792 C3.880151660517251 6.256008580346666, 0.9109881824304868 5.670703248460001, -0.025279098817730716 5.2375112945196 C-0.9615463800659483 4.8043193405792, -0.8953724165179772 4.488469422212308, -0.8936696151229273 4.087781249832392 C-0.8919668137278775 3.687093077452476, -0.8852652596627921 3.261024171586126, -0.015062290447431792 2.833382260240105 C0.8551406787679285 2.4057403488940836, 3.862714783711897 2.1809308819055513, 4.327548200169235 1.5219297817562634 C4.792381616626574 0.8629286816069753, 3.2180437298069156 -0.7574651508654013, 2.773938208296597 -1.120624340655623" style="stroke:none;stroke-width:0;fill:#868e96"/>
    <path d="M2.5075725880694866 1.1094508992341754 C3.215514974520192 0.8381072445718798, 4.501416119026651 0.7228135651671862, 5.314137170196557 0.9078925982555242 C6.126858221366463 1.092971631343862, 6.854213861948232 1.6095503095586572, 7.383898895088924 2.219925097764203 C7.913583928229617 2.8302998859697484, 8.769427460883401 3.8450266240960436, 8.492247369040712 4.570141327488798 C8.215067277198022 5.2952560308815535, 6.320805282514745 5.97567276257209, 5.720818344032785 6.570613318120732 C5.120831405550825 7.165553873669374, 5.577428989734303 8.123168366014092, 4.8923257381489496 8.139784660780652 C4.207222486563596 8.156400955547213, 2.4204697582211083 7.2067597849126885, 1.6101988345206655 6.6703110867200905 C0.7999279108202225 6.1338623885274925, 0.3623374885976671 5.6098454083137534, 0.030700195946291586 4.921092471625066 C-0.30093709670508395 4.232339534936378, -0.7673151746777256 3.48952201800595, -0.37962492138758774 2.537793466587967 C0.008065331902550099 1.5860649151699842, 1.8120141510653833 -0.4001469096510126, 2.3568417156871186 -0.7892788368828327 C2.901669280308854 -1.1784107641146528, 2.777106803934376 0.128439213846141, 2.8893404663428237 0.20300190319704603 M4.506333516753963 0.7941332122854527 C5.110136512113543 0.5501908397931888, 6.0382607084670035 -0.32168894862006986, 6.3322306553637695 -0.014467403869796502 C6.6262006022605355 0.29275414088047685, 5.862040001032779 1.7353707939646008, 6.27015319813456 2.637462480787093 C6.678266395236341 3.539554167609585, 8.775045401788496 4.820428453683893, 8.780909837974459 5.398082717065156 C8.786774274160422 5.9757369804464195, 7.305630782397076 5.954864505341299, 6.305339815250337 6.103388061074671 C5.305048848103597 6.2519116168080435, 3.7005694213986158 6.545391934652445, 2.779164035094025 6.289224051465391 C1.8577586487894346 6.033056168278337, 1.16241351754947 4.83647949197747, 0.7769074974227941 4.566380761952346 C0.3914014772961181 4.296282031927222, 0.32195495845892064 5.0735922137405085, 0.4661279143339696 4.668631671314648 C0.6103008702090186 4.263671128888787, 1.2072510361288942 2.786244935042706, 1.6419452326730877 2.136617507397182 C2.0766394292172814 1.4869900797516578, 2.9053088955354265 1.34905992781929, 3.0742930935991306 0.7708671054415044 C3.2432772916628347 0.1926742830637187, 2.6298876411799608 -1.03425331529649, 2.655850421055313 -1.3325394268695323" style="stroke:#000;stroke-width:1;fill:none"/>
  </g>
</svg>
